<?xml version="1.0" encoding="UTF-8" standalone="no"?>
<svg
   xmlns:dc="http://purl.org/dc/elements/1.1/"
   xmlns:cc="http://creativecommons.org/ns#"
   xmlns:rdf="http://www.w3.org/1999/02/22-rdf-syntax-ns#"
   xmlns:svg="http://www.w3.org/2000/svg"
   xmlns="http://www.w3.org/2000/svg"
   width="34"
   height="34"
   viewBox="0 0 34 34"
   version="1.1"
   id="svg8">
  <defs
     id="defs2" />
  <metadata
     id="metadata5">
    <rdf:RDF>
      <cc:Work
         rdf:about="">
        <dc:format>image/svg+xml</dc:format>
        <dc:type
           rdf:resource="http://purl.org/dc/dcmitype/StillImage" />
        <dc:title></dc:title>
      </cc:Work>
    </rdf:RDF>
  </metadata>
  <g
     id="layer1"
     transform="matrix(1.000593,0,0,1.0006688,0.99050505,-287.73702)">
    <path
       style="opacity:1;vector-effect:none;fill:#000000;fill-opacity:1;stroke:none;stroke-width:3.00189281;stroke-linecap:round;stroke-linejoin:round;stroke-miterlimit:4;stroke-dasharray:none;stroke-dashoffset:0;stroke-opacity:1;paint-order:stroke markers fill"
       d="M 19.001953,1.1308594 V 2 H 19 v 11 h 1 V 2.3359375 A 15,15 45 0 1 32,17 15,15 45 0 1 21.001953,31.455078 v 1.033203 A 16.009488,16.010701 45 0 0 33.009766,17 16.009488,16.010701 45 0 0 19.001953,1.1308594 Z M 12.998047,1.5117188 A 16.009488,16.010701 45 0 0 0.99023438,17 16.009488,16.010701 45 0 0 14.998047,32.869141 V 32 H 15 V 21 H 14 V 31.664062 A 15,15 45 0 1 2,17 15,15 45 0 1 12.998047,2.5449219 Z"
       transform="matrix(0.70668771,-0.70663419,0.70668771,0.70663419,-8.0273788,304.53335)"
       id="path817" />
  </g>
</svg>
