<?xml version="1.0" encoding="UTF-8" standalone="no"?>
<svg
   xmlns:dc="http://purl.org/dc/elements/1.1/"
   xmlns:cc="http://creativecommons.org/ns#"
   xmlns:rdf="http://www.w3.org/1999/02/22-rdf-syntax-ns#"
   xmlns:svg="http://www.w3.org/2000/svg"
   xmlns="http://www.w3.org/2000/svg"
   id="svg8"
   version="1.1"
   viewBox="0 0 34 34"
   height="34"
   width="34">
  <defs
     id="defs2" />
  <metadata
     id="metadata5">
    <rdf:RDF>
      <cc:Work
         rdf:about="">
        <dc:format>image/svg+xml</dc:format>
        <dc:type
           rdf:resource="http://purl.org/dc/dcmitype/StillImage" />
        <dc:title></dc:title>
      </cc:Work>
    </rdf:RDF>
  </metadata>
  <path
     id="path822"
     d="M 14 1 L 14 13 L 15 13 L 15 1 L 14 1 z M 19 1 L 19 13 L 20 13 L 20 1 L 19 1 z M 9 3.1855469 C 4.1702837 5.9748853 1.0026451 11.162345 1 17 C 1 25.836556 8.163444 33 17 33 C 25.836556 33 33 25.836556 33 17 C 32.99593 11.163669 29.828666 5.9780498 25 3.1894531 L 25 4.3496094 C 29.280842 7.0494632 31.988612 11.788234 32 17 C 32 25.284271 25.284271 32 17 32 C 8.7157288 32 2 25.284271 2 17 C 2.0120649 11.788824 4.7195457 7.0510246 9 4.3515625 L 9 3.1855469 z "
     style="opacity:1;vector-effect:none;fill:#000000;fill-opacity:1;stroke:none;stroke-width:3;stroke-linecap:round;stroke-linejoin:round;stroke-miterlimit:4;stroke-dasharray:none;stroke-dashoffset:0;stroke-opacity:1;paint-order:stroke markers fill" />
</svg>
