<?xml version="1.0" encoding="UTF-8" standalone="no"?>
<svg
   xmlns:dc="http://purl.org/dc/elements/1.1/"
   xmlns:cc="http://creativecommons.org/ns#"
   xmlns:rdf="http://www.w3.org/1999/02/22-rdf-syntax-ns#"
   xmlns:svg="http://www.w3.org/2000/svg"
   xmlns="http://www.w3.org/2000/svg"
   id="svg8"
   version="1.1"
   viewBox="0 0 34 34"
   height="34"
   width="34">
  <defs
     id="defs2" />
  <metadata
     id="metadata5">
    <rdf:RDF>
      <cc:Work
         rdf:about="">
        <dc:format>image/svg+xml</dc:format>
        <dc:type
           rdf:resource="http://purl.org/dc/dcmitype/StillImage" />
        <dc:title></dc:title>
      </cc:Work>
    </rdf:RDF>
  </metadata>
  <path
     style="opacity:1;vector-effect:none;fill:#000000;fill-opacity:1;stroke:none;stroke-width:3;stroke-linecap:round;stroke-linejoin:round;stroke-miterlimit:4;stroke-dasharray:none;stroke-dashoffset:0;stroke-opacity:1;paint-order:stroke markers fill"
     d="M 17,1 C 8.163444,1 1,8.163444 1,17 1,25.836556 8.163444,33 17,33 25.836556,33 33,25.836556 33,17 33,8.163444 25.836556,1 17,1 Z m 0,1 C 25.284271,2 32,8.7157288 32,17 32,25.284271 25.284271,32 17,32 8.7157288,32 2,25.284271 2,17 2,8.7157288 8.7157288,2 17,2 Z m -4,9 v 12 h 1 V 11 Z m 7,0 v 12 h 1 V 11 Z"
     id="path831" />
</svg>
